<svg width="589" height="598" viewBox="0 0 589 598" fill="none" xmlns="http://www.w3.org/2000/svg">
<path d="M318.837 18.8179H325.4C350.201 18.8248 373.984 30.092 391.518 50.1417C409.053 70.1914 418.904 97.3817 418.904 125.733V329.698H225.282V125.733C225.282 111.69 227.702 97.7843 232.404 84.8107C237.106 71.8371 243.997 60.0494 252.685 50.121C261.373 40.1926 271.686 32.318 283.037 26.9469C294.387 21.5759 306.552 18.8136 318.837 18.8179Z" fill="#FFB494"/>
<path d="M357.247 206.919V332.873H271.33V206.919H357.247ZM359.523 204.317H269.053V335.476H359.523V204.317Z" fill="#CA7358"/>
<path d="M359.523 204.31H269.053V231.425H359.523V204.31Z" fill="#CA7358"/>
<path d="M268.57 138.812V333.505H216.857V138.812H268.57ZM270.847 136.209H214.58V336.107H270.847V136.209Z" fill="#CA7358"/>
<path d="M428.267 99.3994V332.874H360.008V99.3994H428.267ZM430.544 96.7966H357.731V335.476H430.544V96.7966Z" fill="#CA7358"/>
<path d="M387.33 128.642H387.984C390.457 128.642 392.828 129.765 394.577 131.763C396.326 133.762 397.308 136.473 397.308 139.3V163.323H378V139.3C378 137.9 378.242 136.513 378.711 135.22C379.179 133.926 379.867 132.751 380.733 131.761C381.599 130.771 382.628 129.986 383.76 129.451C384.892 128.916 386.105 128.641 387.33 128.642Z" fill="#CA7358"/>
<path d="M375.797 147.557H399.516" stroke="#FFB494" stroke-width="4" stroke-linecap="round" stroke-linejoin="round"/>
<path d="M387.33 190.86H387.984C390.457 190.86 392.828 191.983 394.577 193.982C396.326 195.981 397.308 198.692 397.308 201.519V225.542H378V201.519C378 200.118 378.242 198.732 378.711 197.438C379.179 196.145 379.867 194.97 380.733 193.98C381.599 192.99 382.628 192.205 383.76 191.67C384.892 191.135 386.105 190.859 387.33 190.86Z" fill="#F5EBDD"/>
<path d="M375.797 209.776H399.516" stroke="#FFB494" stroke-width="4" stroke-linecap="round" stroke-linejoin="round"/>
<path d="M387.33 253.079H387.984C390.457 253.079 392.828 254.202 394.577 256.201C396.326 258.2 397.308 260.911 397.308 263.738V287.761H378V263.738C378 260.911 378.983 258.2 380.731 256.201C382.48 254.202 384.851 253.079 387.324 253.079H387.33Z" fill="#F5EBDD"/>
<path d="M375.797 271.995H399.516" stroke="#FFB494" stroke-width="4" stroke-linecap="round" stroke-linejoin="round"/>
<path d="M387.33 315.298H387.984C390.457 315.298 392.828 316.421 394.577 318.42C396.326 320.419 397.308 323.13 397.308 325.957V348.028H378V325.957C378 324.556 378.242 323.17 378.711 321.876C379.179 320.583 379.867 319.408 380.733 318.418C381.599 317.428 382.628 316.643 383.76 316.108C384.892 315.573 386.105 315.297 387.33 315.298Z" fill="#30242A"/>
<path d="M430.544 96.7966H357.731V107.201H430.544V96.7966Z" fill="#CA7358"/>
<path d="M270.847 131.166H214.58V141.571H270.847V131.166Z" fill="#CA7358"/>
<path d="M304.634 256.021H285.327V284.397H304.634V256.021Z" fill="#F5EBDD"/>
<path d="M283.119 268.631H306.844" stroke="#FFB494" stroke-width="4" stroke-linecap="round" stroke-linejoin="round"/>
<path d="M294.981 285.66V268.631" stroke="#FFB494" stroke-width="4" stroke-linecap="round" stroke-linejoin="round"/>
<path d="M304.634 307.269H285.327V335.646H304.634V307.269Z" fill="#CA7358"/>
<path d="M283.119 319.879H306.844" stroke="#FFB494" stroke-width="4" stroke-linecap="round" stroke-linejoin="round"/>
<path d="M294.981 336.908V319.879" stroke="#FFB494" stroke-width="4" stroke-linecap="round" stroke-linejoin="round"/>
<path d="M341.041 256.021H321.733V284.397H341.041V256.021Z" fill="#30242A"/>
<path d="M319.531 268.631H343.25" stroke="#FFB494" stroke-width="4" stroke-linecap="round" stroke-linejoin="round"/>
<path d="M331.387 285.66V268.631" stroke="#FFB494" stroke-width="4" stroke-linecap="round" stroke-linejoin="round"/>
<path d="M341.041 307.269H321.733V335.646H341.041V307.269Z" fill="#F5EBDD"/>
<path d="M319.531 319.879H343.25" stroke="#FFB494" stroke-width="4" stroke-linecap="round" stroke-linejoin="round"/>
<path d="M331.387 336.908V319.879" stroke="#FFB494" stroke-width="4" stroke-linecap="round" stroke-linejoin="round"/>
<path d="M281.878 95.8531C289.8 95.8531 296.222 88.5118 296.222 79.4557C296.222 70.3997 289.8 63.0583 281.878 63.0583C273.956 63.0583 267.534 70.3997 267.534 79.4557C267.534 88.5118 273.956 95.8531 281.878 95.8531Z" fill="#F5EBDD"/>
<path d="M443.727 329.802H200.458V348.718H443.727V329.802Z" fill="#F5EBDD"/>
<path d="M325.934 0H318.267C257.783 0 208.751 56.0504 208.751 125.193V348.718H435.473V125.193C435.456 56.0504 386.419 0 325.934 0ZM313.822 329.802H225.281V172.153H313.822V329.802ZM313.822 153.238H225.281V125.837C225.282 98.4682 234.464 72.1418 250.935 52.2798C267.407 32.4177 289.914 20.5324 313.822 19.0717V153.238ZM418.903 329.802H330.369V172.153H418.903V329.802ZM418.903 153.238H330.369V19.0717C354.276 20.5325 376.782 32.418 393.253 52.2802C409.723 72.1424 418.904 98.4688 418.903 125.837V153.238Z" fill="#F5EBDD"/>
<path d="M22.0625 597.802C34.2473 597.802 44.1251 586.51 44.1251 572.581C44.1251 558.652 34.2473 547.36 22.0625 547.36C9.87773 547.36 0 558.652 0 572.581C0 586.51 9.87773 597.802 22.0625 597.802Z" fill="#FFB494"/>
<path d="M514.104 366.989C514.107 367.686 513.983 368.375 513.739 369.013C512.032 373.457 504.734 374.114 497.477 370.477C491.398 367.438 487.265 362.35 487.089 358.166V413.657H514.121V366.989H514.104Z" fill="#FFBE21"/>
<path d="M503.71 354.398C496.452 350.761 489.166 351.418 487.447 355.863C487.171 356.592 487.048 357.385 487.089 358.179C487.265 362.363 491.397 367.451 497.477 370.49C504.734 374.127 512.02 373.47 513.739 369.026C513.983 368.388 514.107 367.699 514.103 367.002C514.12 362.766 509.937 357.509 503.71 354.398Z" fill="#A15842"/>
<path d="M534.828 385.293C534.652 389.477 530.519 394.566 524.44 397.611C517.177 401.242 509.897 400.591 508.172 396.14C507.931 395.503 507.807 394.817 507.808 394.123V413.644H534.834V385.293H534.828Z" fill="#FFBE21"/>
<path d="M534.47 382.977C532.762 378.532 525.465 377.875 518.202 381.512C511.98 384.629 507.797 389.88 507.808 394.123C507.807 394.817 507.931 395.503 508.172 396.14C509.88 400.591 517.177 401.241 524.44 397.611C530.519 394.565 534.652 389.477 534.828 385.293C534.869 384.499 534.746 383.706 534.47 382.977Z" fill="#A15842"/>
<path d="M508.599 413.67V394.754" stroke="#A15842" stroke-width="4" stroke-miterlimit="10" stroke-linecap="round"/>
<path d="M500.602 350.292V361.016" stroke="#30242A" stroke-width="4" stroke-linecap="round" stroke-linejoin="round"/>
<path d="M521.321 377.413V388.761" stroke="#30242A" stroke-width="4" stroke-linecap="round" stroke-linejoin="round"/>
<path d="M384.865 597.984C384.175 597.985 383.494 597.798 382.88 597.44C382.265 597.081 381.734 596.561 381.329 595.922C380.925 595.283 380.658 594.543 380.553 593.764C380.447 592.984 380.505 592.187 380.721 591.438L394.382 543.847C394.67 542.849 395.226 541.981 395.971 541.365C396.716 540.75 397.612 540.418 398.531 540.418H408.105C408.866 540.417 409.614 540.644 410.274 541.076C410.934 541.508 411.484 542.129 411.869 542.879C412.254 543.629 412.46 544.481 412.468 545.351C412.476 546.22 412.285 547.077 411.913 547.836L388.656 595.427C388.279 596.2 387.73 596.844 387.064 597.294C386.397 597.743 385.638 597.981 384.865 597.984Z" fill="#30242A"/>
<path d="M567.877 597.984C568.567 597.985 569.247 597.798 569.861 597.44C570.476 597.081 571.007 596.561 571.412 595.922C571.817 595.283 572.083 594.543 572.188 593.764C572.294 592.984 572.237 592.187 572.02 591.438L558.359 543.847C558.071 542.85 557.516 541.983 556.772 541.367C556.028 540.752 555.134 540.419 554.216 540.418H544.636C543.876 540.419 543.129 540.647 542.47 541.079C541.811 541.512 541.262 542.133 540.877 542.883C540.493 543.632 540.286 544.483 540.277 545.352C540.268 546.22 540.458 547.076 540.828 547.836L564.086 595.427C564.463 596.199 565.012 596.842 565.679 597.292C566.345 597.741 567.103 597.98 567.877 597.984Z" fill="#30242A"/>
<path d="M589 413.67H364.487V560.596H589V413.67Z" fill="#A15842"/>
<path d="M572.447 432.585H381.034V541.68H572.447V432.585Z" fill="#FFB494"/>
<path d="M476.536 430.698V543.573" stroke="#A15842" stroke-width="4" stroke-miterlimit="10"/>
<path d="M499.094 493.744C502.288 493.744 504.877 490.784 504.877 487.133C504.877 483.481 502.288 480.521 499.094 480.521C495.9 480.521 493.311 483.481 493.311 487.133C493.311 490.784 495.9 493.744 499.094 493.744Z" fill="#30242A"/>
<path d="M454.388 493.744C457.582 493.744 460.171 490.784 460.171 487.133C460.171 483.481 457.582 480.521 454.388 480.521C451.194 480.521 448.605 483.481 448.605 487.133C448.605 490.784 451.194 493.744 454.388 493.744Z" fill="#30242A"/>
<path d="M88.7511 536.819V547.536H169.841V536.819H88.7511Z" fill="#A15842"/>
<path d="M183.2 592.44L163.112 454.657H175.396C176.712 454.657 177.975 454.059 178.906 452.995C179.836 451.931 180.359 450.487 180.359 448.983C180.359 447.478 179.836 446.035 178.906 444.971C177.975 443.906 176.712 443.309 175.396 443.309H83.2922C81.9758 443.309 80.7133 443.906 79.7825 444.971C78.8516 446.035 78.3287 447.478 78.3287 448.983C78.3287 450.487 78.8516 451.931 79.7825 452.995C80.7133 454.059 81.9758 454.657 83.2922 454.657H95.479L75.3916 592.44C75.2924 593.122 75.3244 593.821 75.4852 594.488C75.6461 595.154 75.932 595.773 76.3231 596.3C76.7142 596.828 77.201 597.252 77.7499 597.543C78.2987 597.833 78.8963 597.984 79.5013 597.984C80.4522 597.985 81.3746 597.614 82.1151 596.932C82.8556 596.25 83.3695 595.298 83.5711 594.236L110.187 454.657H148.404L175.014 594.236C175.218 595.298 175.733 596.249 176.475 596.931C177.216 597.613 178.139 597.984 179.09 597.984C179.695 597.984 180.293 597.833 180.841 597.543C181.39 597.252 181.877 596.828 182.268 596.3C182.659 595.773 182.945 595.154 183.106 594.488C183.267 593.821 183.299 593.122 183.2 592.44Z" fill="#FFBE21"/>
<path d="M175.396 454.657C176.712 454.657 177.975 454.059 178.906 452.995C179.836 451.931 180.359 450.487 180.359 448.983C180.359 447.478 179.836 446.035 178.906 444.971C177.975 443.906 176.712 443.309 175.396 443.309H83.2922C81.9758 443.309 80.7133 443.906 79.7825 444.971C78.8517 446.035 78.3287 447.478 78.3287 448.983C78.3287 450.487 78.8517 451.931 79.7825 452.995C80.7133 454.059 81.9758 454.657 83.2922 454.657H95.479V454.832H110.176L110.21 454.657H148.427L148.461 454.832H163.158V454.657H175.396Z" fill="#A15842"/>
<path d="M180.855 536.637H239.483C240.212 522.407 242.813 503.53 244.97 478.03C246.888 455.418 248.539 436.437 248.431 420.769C248.249 394.65 189.803 426.261 189.803 426.261C189.803 431.967 190.81 437.446 190.839 442.756C190.907 456.55 184.794 468.289 180.428 484.927C173.808 510.154 179.323 536.637 179.323 536.637H180.855Z" fill="#4856DF"/>
<path d="M242.608 590.866H191.282C190.57 591.125 189.962 591.667 189.568 592.394C189.174 593.12 189.021 593.984 189.135 594.829C189.249 595.673 189.623 596.444 190.19 597.001C190.757 597.558 191.479 597.865 192.227 597.867L267.755 597.984C268.421 589.591 264.249 583.272 252.478 573.909C245.761 580.565 242.608 590.866 242.608 590.866Z" fill="#3EC1F3"/>
<path d="M249.831 571.872C247.393 570.07 245.288 567.741 243.633 565.014C239.648 558.331 238.806 549.332 239.46 536.637H188.653C188.751 546.129 189.35 555.605 190.446 565.014C191.744 575.666 193.497 582.992 194.903 590.697H192.233C191.911 590.696 191.59 590.753 191.283 590.866H242.608C242.608 590.866 245.762 580.565 252.478 573.948C251.636 573.267 250.754 572.575 249.831 571.872Z" fill="#A15842"/>
<path d="M240.075 525.237C236.933 518.087 234.791 510.418 233.728 502.509C230.011 472.987 232.214 457.852 221.735 444.597H191.072" stroke="#30242A" stroke-width="4" stroke-linecap="round" stroke-linejoin="round"/>
<path d="M259.195 539.155L259.252 539.312L304.515 515.08C300.992 503.029 297.309 486.996 291.258 466.011C285.589 446.374 281.838 431.7 278.286 420.346C273.319 424.436 267.193 426.256 261.112 425.448C255.031 424.641 249.434 421.264 245.419 415.981C241.404 410.698 239.262 403.89 239.413 396.894C239.564 389.898 241.996 383.219 246.234 378.168C222.071 365.688 136.251 357.548 136.251 357.548L87.7035 349.349C85.1421 354.19 82.962 361.862 81.7781 370.822H98.7405V391.559C98.7314 395.753 97.2688 399.771 94.6729 402.733C92.077 405.696 88.5597 407.361 84.8916 407.365H83.924C83.6963 407.365 83.4686 407.365 83.2466 407.365C87.88 426.885 99.7992 443.328 124.127 443.328H222.316C232.795 456.57 230.592 471.705 234.309 501.24C237.348 525.4 251.755 543.209 251.755 543.209L259.195 539.155Z" fill="#4856DF"/>
<path d="M328.149 566.907L283.068 590.28C282.304 590.89 281.769 591.806 281.569 592.845C281.369 593.885 281.518 594.973 281.986 595.893C282.455 596.813 283.209 597.498 284.099 597.811C284.989 598.125 285.95 598.045 286.79 597.587L355.198 561.149C352.517 552.69 345.624 549.436 329.293 546.183L328.593 546.033C327.24 552.889 327.089 559.984 328.149 566.907Z" fill="#3EC1F3"/>
<path d="M328.593 546.007C323.891 544.979 320.203 543.19 317.158 540.483C311.545 535.486 308.107 527.352 304.515 515.106L259.252 539.338C263.088 549.417 268.473 560.017 273.602 569.269C278.081 577.325 282.356 584.346 285.231 589.05L283.597 589.955C283.412 590.058 283.234 590.18 283.068 590.319L328.149 566.946C327.081 560.002 327.232 552.884 328.593 546.007Z" fill="#A15842"/>
<path d="M263.954 425.649C269.101 425.653 274.117 423.796 278.286 420.346C271.222 397.65 265.098 388.195 246.576 378.344L246.234 378.168C242.904 382.137 240.669 387.137 239.805 392.546C238.941 397.956 239.487 403.537 241.375 408.594C243.263 413.652 246.409 417.964 250.424 420.994C254.438 424.024 259.143 425.638 263.954 425.636V425.649Z" fill="#3EC1F3"/>
<path d="M84.8919 407.364C88.5668 407.364 92.0914 405.696 94.6905 402.726C97.2896 399.756 98.7506 395.728 98.7521 391.527V370.789H81.7897C80.2926 382.039 80.378 395.275 83.2468 407.345C83.4688 407.345 83.6965 407.345 83.9242 407.345L84.8919 407.364Z" fill="#3EC1F3"/>
<path d="M221.479 444.883H238.026" stroke="#30242A" stroke-width="4" stroke-linecap="round" stroke-linejoin="round"/>
<path d="M292.653 244.354C292.653 244.354 262.866 205.26 227.672 191.082" stroke="#30242A" stroke-width="4" stroke-linecap="round" stroke-linejoin="round"/>
<path d="M199.223 206.353C198.141 203.367 201.75 198.682 207.761 194.726C199.621 192.409 193.838 188.095 194.419 184.471C194.999 180.846 201.739 179.142 210.072 180.261C205.689 174.144 203.759 168.301 205.695 165.946C208.159 162.933 215.98 166.733 223.158 174.405C229.419 181.107 233.119 188.564 232.334 192.357C231.895 196.222 226.129 201.701 218.206 205.449C209.093 209.77 200.606 210.173 199.223 206.353Z" fill="#3546AB"/>
<path d="M232.63 204.499C238.37 204.499 243.024 199.179 243.024 192.617C243.024 186.055 238.37 180.736 232.63 180.736C226.89 180.736 222.236 186.055 222.236 192.617C222.236 199.179 226.89 204.499 232.63 204.499Z" fill="#30242A"/>
<path d="M254.529 207.92C257.385 206.708 256.087 194.602 251.63 180.88C247.173 167.158 241.245 157.017 238.389 158.229C235.534 159.441 236.832 171.548 241.288 185.269C245.745 198.991 251.673 209.132 254.529 207.92Z" fill="#30242A"/>
<path d="M254.021 210.303C254.021 210.303 258.438 224.176 256.229 238.68" stroke="#30242A" stroke-width="4" stroke-linecap="round" stroke-linejoin="round"/>
<path d="M173.472 155.046C164.058 167.156 154.051 169.83 154.051 169.83C147.579 161.762 135.836 161.762 134.043 173.194C132.091 185.863 145.797 189.351 145.797 189.351C145.797 189.351 149.252 205.696 143.953 213.771C139.274 220.929 133.263 222.107 120.946 223.681C136.997 254.687 153.391 252.24 158.849 252.24C171.941 252.24 175.63 234.873 176.66 225.92C173.679 224.731 170.637 223.751 167.552 222.985L165.788 210.882C165.788 210.882 174.024 214.24 181.088 209.535C188.152 204.831 189.917 196.079 187.56 182.629C186.166 174.658 186.217 164.8 185.021 155.99C180.36 156.894 173.472 155.046 173.472 155.046Z" fill="#A15842"/>
<path d="M271.399 222.601C268.9 211.168 249.336 204.967 249.336 204.967C249.336 204.967 250.509 179.304 245.471 178.484C241.612 177.834 237.747 188.576 234.44 209.385C230.74 232.641 232.784 275.593 232.784 275.593C232.784 275.593 228.691 271.344 222.885 265.429C222.305 266.77 221.415 267.903 220.311 268.706C219.207 269.509 217.932 269.951 216.624 269.984C217.449 271.18 217.967 272.616 218.117 274.13C218.268 275.644 218.046 277.176 217.476 278.553C216.906 279.931 216.012 281.099 214.893 281.927C213.774 282.755 212.475 283.209 211.142 283.239C211.968 284.435 212.485 285.871 212.636 287.385C212.786 288.898 212.564 290.43 211.994 291.808C211.425 293.185 210.53 294.354 209.411 295.181C208.292 296.009 206.993 296.464 205.661 296.493C206.527 297.749 207.053 299.267 207.173 300.861C207.293 302.454 207.002 304.053 206.336 305.459C205.67 306.866 204.658 308.018 203.425 308.775C202.192 309.531 200.793 309.858 199.4 309.715C211.484 318.708 227.911 329.197 238.857 329.197C296.222 329.171 273.055 230.169 271.399 222.601Z" fill="#A15842"/>
<path d="M206.492 305.037C207.061 303.66 207.283 302.128 207.133 300.615C206.983 299.101 206.467 297.665 205.644 296.468C206.976 296.438 208.275 295.983 209.394 295.156C210.513 294.328 211.408 293.159 211.977 291.782C212.547 290.405 212.769 288.873 212.618 287.359C212.468 285.845 211.951 284.409 211.125 283.213C212.458 283.183 213.757 282.729 214.876 281.901C215.995 281.073 216.889 279.905 217.459 278.527C218.028 277.15 218.25 275.618 218.1 274.104C217.949 272.59 217.432 271.155 216.607 269.958C217.915 269.926 219.19 269.484 220.294 268.681C221.398 267.878 222.288 266.744 222.868 265.404C212.861 255.214 197.772 240.105 189.74 233.318C185.852 230.032 180.9 227.599 176.648 225.92C175.646 234.899 171.981 252.24 158.889 252.24C153.453 252.24 137.037 254.687 120.985 223.681L115.828 224.332C98.0689 226.59 89.9861 237.515 85.2276 250.568C82.2847 258.643 79.9282 273.44 79.9282 273.44C78.1025 287.005 77.1626 300.708 77.1163 314.433L100.209 338.867L162.207 340.617C167.171 332.249 176.278 316.795 179.284 310.867C183.143 303.3 183.695 296.995 183.695 296.995C183.695 296.995 190.321 302.916 199.399 309.677C200.854 309.822 202.314 309.456 203.581 308.627C204.849 307.798 205.865 306.545 206.492 305.037Z" fill="#FFBE21"/>
<path d="M179.95 140.243C172.891 130.158 153.47 123.429 138.17 136.209C122.869 148.988 124.048 169.843 124.634 177.918C124.634 177.918 108.161 171.86 96.3898 185.987C92.9831 190.025 90.5021 194.964 89.1675 200.363C87.8328 205.762 87.6859 211.454 88.7396 216.934C88.7396 216.934 67.0642 216.237 62.8463 239.135C60.45 252.149 64.924 260.81 69.8875 266.171C72.7986 269.294 76.1994 271.76 79.9112 273.439C79.9112 273.439 82.2677 258.643 85.2105 250.568C89.9691 237.515 98.0519 226.59 115.811 224.332L120.968 223.681C133.286 222.107 139.297 220.909 143.976 213.771C149.269 205.696 145.797 189.351 145.797 189.351C145.797 189.351 132.073 185.863 134.026 173.207C135.796 161.775 147.562 161.775 154.034 169.843C154.034 169.843 164.04 167.156 173.455 155.046C173.455 155.046 180.342 156.894 185.038 155.99C184.236 149.926 182.824 144.362 179.95 140.243Z" fill="#30242A"/>
<path d="M272.623 231.587C270.955 230.709 269.959 228.496 270.243 224.267C270.243 224.267 266.794 229.212 263.123 227.013C259.451 224.813 260.92 220.076 260.92 220.076C260.92 220.076 257.607 222.601 254.852 219.426C252.353 216.569 254.283 211.858 254.283 211.858C254.283 211.858 250.617 213.569 249.319 210.596C247.686 206.874 249.672 202.976 251.824 199.99" stroke="#30242A" stroke-width="8" stroke-linecap="round" stroke-linejoin="round"/>
<path d="M87.6925 217.48C88.3162 220.851 89.4405 224.076 91.0167 227.013" stroke="black" stroke-width="4" stroke-miterlimit="10" stroke-linecap="round"/>
<path d="M231.679 276.407L233.062 296.064" stroke="#30242A" stroke-width="4" stroke-linecap="round" stroke-linejoin="round"/>
<path d="M181.76 275.242C185.363 282.66 185.318 291.561 184.851 296.838" stroke="#30242A" stroke-width="4" stroke-linecap="round" stroke-linejoin="round"/>
<path d="M149.213 296.064L131.561 296.695" stroke="#30242A" stroke-width="4" stroke-linecap="round" stroke-linejoin="round"/>
<path d="M165.486 212.125C163.019 211.018 160.613 209.742 158.28 208.305" stroke="#30242A" stroke-width="4" stroke-linecap="round" stroke-linejoin="round"/>
<path d="M169.897 230.8L168.935 223.831" stroke="#30242A" stroke-width="4" stroke-linecap="round" stroke-linejoin="round"/>
<path d="M123.444 178.172L124.668 189.806" stroke="black" stroke-width="4" stroke-miterlimit="10" stroke-linecap="round"/>
<path d="M181.76 192.019C180.513 192.943 176.381 193.249 174.4 189.13" stroke="#30242A" stroke-width="4" stroke-linecap="round" stroke-linejoin="round"/>
<path d="M148.66 178.77L143.144 175.621" stroke="#30242A" stroke-width="4" stroke-linecap="round" stroke-linejoin="round"/>
<path d="M174.127 175.979C173.244 177.352 169.084 180.013 165.953 176.975" stroke="#30242A" stroke-width="4" stroke-linecap="round" stroke-linejoin="round"/>
<path d="M187.531 173.994C186.872 174.154 186.192 174.164 185.53 174.024C184.868 173.883 184.237 173.595 183.672 173.175" stroke="#30242A" stroke-width="4" stroke-linecap="round" stroke-linejoin="round"/>
<path d="M180.069 176.337C180.701 177.97 181.31 179.773 181.179 180.462C180.985 181.301 180.548 182.04 179.938 182.558" stroke="#30242A" stroke-width="4" stroke-linecap="round" stroke-linejoin="round"/>
<path d="M145.638 186.39L138.107 194.511C137.699 194.95 137.397 195.502 137.229 196.113C137.061 196.724 137.032 197.374 137.147 198.001C137.261 198.629 137.514 199.212 137.881 199.695C138.249 200.179 138.718 200.547 139.246 200.764L148.148 204.375C148.677 204.589 149.245 204.644 149.798 204.535C150.351 204.426 150.871 204.157 151.307 203.752C151.742 203.348 152.08 202.823 152.288 202.227C152.495 201.631 152.565 200.983 152.491 200.348L151.119 188.635C151.039 187.954 150.797 187.312 150.419 186.778C150.041 186.244 149.541 185.839 148.976 185.607C148.41 185.375 147.799 185.326 147.211 185.464C146.622 185.602 146.078 185.923 145.638 186.39Z" fill="#F4E6D8"/>
<path d="M253.747 188.55C253.747 188.55 257.607 186.026 260.919 187.288C266.042 189.24 265.291 194.693 265.291 194.693C265.291 194.693 272.474 191.732 273.869 200.412C273.869 200.412 280.346 202.072 278.889 209.477C278.889 209.477 284.132 209.795 283.09 217.649C282.048 225.503 277.466 232.029 274.711 232.029C271.865 232.029 269.856 230.032 270.243 224.221C270.243 224.221 266.794 229.166 263.122 226.967C259.451 224.768 260.919 220.031 260.919 220.031C260.919 220.031 257.607 222.555 254.852 219.38C252.353 216.524 254.282 211.813 254.282 211.813C254.282 211.813 250.617 213.524 249.319 210.55C246.558 204.245 254.151 197.465 255.387 195.422L253.747 188.55Z" fill="#A15842"/>
<path d="M252.109 214.11C255.899 210.134 262.354 202.632 265.417 194.758" stroke="#30242A" stroke-width="4" stroke-linecap="round" stroke-linejoin="round"/>
<path d="M259.07 223.187C265.37 217.062 270.512 209.535 274.182 201.063" stroke="#30242A" stroke-width="4" stroke-linecap="round" stroke-linejoin="round"/>
<path d="M268.82 227.859C270.528 225.477 276.499 216.921 279.459 210.147" stroke="#30242A" stroke-width="4" stroke-linecap="round" stroke-linejoin="round"/>
<path d="M267.75 372.683H172.214L193.929 294.255C194.571 291.946 195.84 289.931 197.551 288.501C199.262 287.071 201.327 286.302 203.447 286.303H284.177C285.746 286.303 287.293 286.725 288.692 287.535C290.091 288.346 291.303 289.522 292.231 290.968C293.158 292.415 293.773 294.091 294.028 295.86C294.282 297.63 294.168 299.443 293.695 301.152L275.736 366.007C275.196 367.944 274.132 369.634 272.696 370.835C271.261 372.035 269.529 372.682 267.75 372.683Z" fill="#30242A"/>
<path d="M116.768 363.853C116.486 364.869 116.417 365.946 116.568 366.998C116.719 368.05 117.084 369.046 117.635 369.906C118.185 370.767 118.906 371.466 119.737 371.949C120.568 372.431 121.488 372.682 122.42 372.683H267.75C269.527 372.678 271.257 372.027 272.69 370.825C274.122 369.622 275.183 367.931 275.719 365.994L276.288 363.853H116.768Z" fill="#30242A"/>
<path d="M253.116 322.742C250.896 319.268 240.804 328.442 240.064 329.204C239.677 328.442 234.429 319.268 230.575 322.742C227.234 325.755 234.56 339.205 236.535 342.634C236.616 342.738 236.716 342.822 236.828 342.879C236.94 342.936 237.061 342.965 237.184 342.965C237.306 342.965 237.427 342.936 237.539 342.879C237.651 342.822 237.751 342.738 237.833 342.634C241.424 339.172 255.045 325.722 253.116 322.742Z" fill="#FFBE21"/>
<path d="M243.894 320.286C244.696 317.343 244.663 314.713 243.82 314.412C242.976 314.112 241.642 316.255 240.84 319.199C240.038 322.143 240.072 324.773 240.915 325.073C241.758 325.373 243.092 323.23 243.894 320.286Z" fill="#FFBE21"/>
<path d="M62.0269 301.576C63.2669 302.122 64.6153 302.264 65.9218 301.986C67.2283 301.708 68.4416 301.021 69.4266 300.001C69.5434 301.52 70.0295 302.972 70.8301 304.192C71.6307 305.413 72.7138 306.353 73.9571 306.906C75.2004 307.46 76.5544 307.605 77.8661 307.325C79.1777 307.046 80.3949 306.352 81.38 305.324C81.4998 306.841 81.9878 308.291 82.7891 309.508C83.5903 310.726 84.6731 311.664 85.9154 312.217C87.1577 312.769 88.5102 312.914 89.8208 312.636C91.1313 312.357 92.3478 311.666 93.3333 310.64C93.4246 311.838 93.746 312.998 94.2746 314.038C94.8032 315.078 95.5261 315.971 96.3916 316.655C97.2572 317.338 98.244 317.795 99.2817 317.993C100.319 318.19 101.383 318.124 102.395 317.797L111.002 291.373C114.316 281.229 115.888 270.45 115.629 259.626L114.758 224.488C114.758 224.488 94.8987 226.375 83.3153 242.773C77.3728 251.186 65.7097 273.414 58.236 297.58C59.0213 299.404 60.3728 300.829 62.0269 301.576Z" fill="#FFBE21"/>
<path d="M97.8814 317.537C96.6347 316.988 95.5475 316.05 94.7427 314.831C93.9379 313.612 93.4477 312.16 93.3277 310.639C92.3422 311.665 91.1257 312.357 89.8151 312.635C88.5046 312.914 87.152 312.769 85.9097 312.216C84.6674 311.664 83.5847 310.726 82.7834 309.508C81.9821 308.29 81.4941 306.841 81.3743 305.323C80.3892 306.352 79.1721 307.045 77.8604 307.325C76.5487 307.605 75.1948 307.46 73.9514 306.906C72.7081 306.352 71.625 305.412 70.8244 304.192C70.0239 302.972 69.5377 301.52 69.4209 300C68.6016 300.854 67.6201 301.478 66.554 301.823C65.4878 302.169 64.3659 302.227 63.2768 301.993C62.1876 301.759 61.1607 301.239 60.2772 300.475C59.3936 299.71 58.6773 298.721 58.1847 297.586C51.7072 318.532 48.3716 340.942 54.6443 357.073C68.1459 391.813 108.668 379.586 118.231 376.372C127.793 373.158 146.372 362.219 158.753 364.152C171.133 366.085 185.198 373.158 187.452 364.152C187.452 364.152 195.028 363.931 192.643 355.693C192.643 355.693 196.451 355.153 197.015 351.939C198.153 345.503 184.634 339.719 184.634 339.719C184.634 339.719 195.33 341.671 197.578 339.068C200.424 335.814 197.658 330.563 180.189 325.722C161.001 320.413 135.677 323.627 97.9724 331.344L102.384 317.79C100.899 318.267 99.3182 318.178 97.8814 317.537Z" fill="#A15842"/>
<path d="M111.15 287.865L98.553 329.9" stroke="#30242A" stroke-width="4" stroke-linecap="round" stroke-linejoin="round"/>
<path d="M188.032 340.181C181.919 337.526 171.742 333.452 163.841 331.982" stroke="#30242A" stroke-width="4" stroke-linecap="round" stroke-linejoin="round"/>
<path d="M192.802 355.355C184.947 351.314 169.943 343.981 161.871 342.602" stroke="#30242A" stroke-width="4" stroke-linecap="round" stroke-linejoin="round"/>
<path d="M98.0633 329.991C93.8284 330.772 87.18 332.067 80.5374 333.583" stroke="#30242A" stroke-width="4" stroke-linecap="round" stroke-linejoin="round"/>
<path d="M187.218 365.037C181.327 361.608 168.912 354.789 160.187 352.889" stroke="#30242A" stroke-width="4" stroke-linecap="round" stroke-linejoin="round"/>
<path d="M450.893 282.009C450.893 282.009 446.419 293.513 434.682 293.513C422.945 293.513 418.448 282.009 418.448 282.009C418.448 282.009 385.434 368.291 417.879 413.67H451.422C483.85 368.291 450.893 282.009 450.893 282.009Z" fill="#3EC1F3"/>
<path d="M434.653 293.513C446.39 293.513 450.864 282.009 450.864 282.009H418.419C418.419 282.009 422.91 293.513 434.653 293.513Z" fill="#30242A"/>
<path d="M464.975 358.823C446.726 359.194 425.13 366.729 408.51 393.31" stroke="#F5EBDD" stroke-width="4" stroke-linecap="round" stroke-linejoin="round"/>
<path d="M405.59 337.708C417.839 334.292 441.034 331.039 463.518 337.155" stroke="#F5EBDD" stroke-width="4" stroke-linecap="round" stroke-linejoin="round"/>
<path d="M463.415 380.973C455.253 381.083 440.163 391.657 441.825 412.967" stroke="#F5EBDD" stroke-width="4" stroke-linecap="round" stroke-linejoin="round"/>
<path d="M432.598 289.687C432.257 280.415 430.1 243.566 417.292 221.95" stroke="#30242A" stroke-width="4" stroke-miterlimit="10" stroke-linecap="round"/>
<path d="M429.929 261.353C431.567 258.18 422.887 248.86 410.544 240.534C398.2 232.209 386.866 228.032 385.229 231.205C383.591 234.377 392.271 243.698 404.614 252.023C416.958 260.348 428.292 264.525 429.929 261.353Z" fill="#30242A"/>
<path d="M425.136 169.395C427.539 167.829 426.304 160.176 422.377 152.303C418.45 144.43 413.319 139.317 410.915 140.883C408.512 142.449 409.747 150.102 413.674 157.975C417.601 165.849 422.733 170.961 425.136 169.395Z" fill="#30242A"/>
<path d="M382.861 202.775C384.153 199.489 390.232 199.248 397.621 201.766C393.067 192.455 391.673 183.794 394.684 181.562C397.695 179.33 404.059 184.269 409.643 192.839C410.627 184.1 413.291 177.873 416.473 177.834C420.492 177.834 423.782 187.965 423.821 200.497C423.846 204.081 423.567 207.659 422.99 211.182C421.238 210.264 419.313 209.862 417.39 210.011C415.468 210.161 413.608 210.857 411.98 212.037C410.353 213.216 409.009 214.843 408.071 216.767C407.132 218.692 406.63 220.854 406.609 223.057C403.662 222.231 400.788 221.094 398.025 219.66C387.99 214.526 381.216 206.972 382.861 202.775Z" fill="#3546AB"/>
<path d="M411.851 212.125C413.484 210.911 415.359 210.19 417.302 210.027C419.244 209.864 421.191 210.266 422.962 211.195C421.983 217.018 420.212 221.339 418.084 222.744C416.057 224.43 411.765 224.495 406.58 223.07C406.601 220.89 407.094 218.75 408.013 216.841C408.933 214.931 410.251 213.311 411.851 212.125Z" fill="#30242A"/>
<path d="M436.867 289.128C438.438 278.886 446.618 228.672 459.71 200.263" stroke="#30242A" stroke-width="4" stroke-miterlimit="10" stroke-linecap="round"/>
<path d="M503.899 269.852C504.84 266.529 492.265 258.895 475.81 252.802C459.356 246.708 445.253 244.462 444.312 247.785C443.37 251.108 455.945 258.742 472.4 264.836C488.854 270.929 502.957 273.175 503.899 269.852Z" fill="#30242A"/>
<path d="M457.245 156.244C460.387 155.919 463.552 161.859 465.254 170.455C470.103 161.345 476.035 155.71 479.216 157.617C482.398 159.523 481.749 168.282 477.953 178.049C485.102 174.75 491.176 174.333 492.752 177.469C494.733 181.465 488.614 189.722 479.091 195.904C476.375 197.683 473.516 199.161 470.553 200.315C470.391 198.122 469.752 196.01 468.696 194.17C467.639 192.331 466.198 190.821 464.502 189.779C462.807 188.737 460.91 188.195 458.985 188.202C457.06 188.209 455.167 188.765 453.477 189.82C452.664 186.476 452.121 183.054 451.855 179.597C450.801 167.117 453.243 156.66 457.245 156.244Z" fill="#3546AB"/>
<path d="M464.343 189.702C466.07 190.735 467.54 192.249 468.617 194.104C469.695 195.959 470.345 198.096 470.508 200.315C465.584 202.195 461.401 202.553 459.306 201.122C457.029 199.931 454.872 195.682 453.415 189.819C455.086 188.77 456.959 188.211 458.866 188.19C460.773 188.17 462.655 188.689 464.343 189.702Z" fill="#30242A"/>
<path d="M491.182 215.814V215.866C488.505 217.128 486.338 219.491 485.11 222.489C483.882 225.486 483.681 228.902 484.547 232.06C485.413 235.219 487.283 237.892 489.789 239.552C492.294 241.212 495.252 241.739 498.081 241.028V241.08C483.082 246.449 469.375 245.147 467.463 238.165C465.55 231.183 476.183 221.182 491.182 215.814Z" fill="#3546AB"/>
<path d="M487.612 237.697C488.928 237.095 489.996 235.946 490.602 234.482C491.208 233.017 491.307 231.345 490.88 229.801C490.453 228.256 489.531 226.953 488.299 226.152C487.068 225.352 485.616 225.113 484.237 225.484C484.615 223.35 485.448 221.357 486.661 219.679C487.874 218.002 489.431 216.692 491.193 215.866L498.092 241.029C496.24 241.496 494.316 241.437 492.489 240.856C490.661 240.275 488.987 239.191 487.612 237.697Z" fill="#FFB494"/>
<path d="M490.857 229.824C491.279 231.362 491.18 233.026 490.579 234.484C489.978 235.943 488.919 237.09 487.612 237.697C486.192 236.154 485.137 234.224 484.546 232.088C483.956 229.952 483.849 227.68 484.237 225.484C485.616 225.123 487.063 225.369 488.289 226.174C489.516 226.978 490.433 228.281 490.857 229.824Z" fill="#30242A"/>
</svg>
